<svg width="369" height="513" viewBox="0 0 369 513" fill="none" xmlns="http://www.w3.org/2000/svg">
<path d="M324.924 194.327C323.543 192.597 321.869 192.937 320.992 193.29C320.257 193.588 318.573 194.54 318.806 196.926C319.086 199.791 319.243 202.712 319.273 205.609C319.398 217.627 314.577 229.401 306.047 237.912C297.571 246.368 286.423 250.924 274.553 250.792C258.339 250.585 244.891 242.128 235.662 226.335C228.031 213.276 231.385 196.433 234.936 178.6C237.014 168.162 239.163 157.368 239.163 147.095C239.163 67.106 185.389 20.958 153.335 0.569C152.672 0.148 152.041 0 151.482 0C150.573 0 149.853 0.392 149.498 0.632C148.81 1.098 147.709 2.16 148.063 4.04C160.315 69.102 123.771 108.233 85.081 149.661C45.201 192.364 0 240.765 0 328.057C0 429.485 82.517 512.002 183.945 512.002C267.457 512.002 341.088 453.778 363 370.412C377.942 313.569 362.284 241.161 324.924 194.327Z" fill="#FF601E"/>
</svg>
