<svg width="270" height="391" viewBox="0 0 270 391" fill="none" xmlns="http://www.w3.org/2000/svg">
<path d="M218.928 29.0753C186.229 3.27526 143.928 -6.02374 102.528 3.87626C54.5283 14.9763 15.8293 53.0753 4.12825 100.776C-7.57175 148.775 5.92825 197.375 40.4272 231.275C52.7282 243.576 59.9283 262.875 59.9283 282.676V285.976C59.9283 294.375 66.5273 300.976 74.9283 300.976H194.928C203.329 300.976 209.928 294.375 209.928 285.976V282.676C209.928 263.175 217.428 243.275 230.628 230.375C255.829 204.875 269.928 170.976 269.928 134.976C269.928 93.5763 251.328 54.8753 218.928 29.0753ZM134.928 89.9763C112.298 89.9763 95.8243 104.987 91.5103 122.364C89.5473 130.267 81.5953 135.311 73.3313 133.321C65.3043 131.329 60.3963 123.184 62.3893 115.157C69.8213 85.1573 97.9993 59.9763 134.928 59.9763C143.219 59.9763 149.928 66.6853 149.928 74.9763C149.928 83.2673 143.219 89.9763 134.928 89.9763ZM74.9283 330.976V345.976C74.9283 370.79 95.1143 390.976 119.928 390.976H149.928C174.742 390.976 194.928 370.79 194.928 345.976V330.976H74.9283Z" fill="#FA2658"/>
</svg>
