<svg width="322" height="332" viewBox="0 0 322 332" fill="none" xmlns="http://www.w3.org/2000/svg">
<path d="M166.147 331.928C199.053 331.711 231.165 321.802 258.471 303.438C285.777 285.075 307.067 259.072 319.679 228.679C322.6 221.496 324.731 211.629 313.364 211.787C301.997 211.945 292.92 213.997 282.342 213.129C266.436 211.846 250.923 207.532 236.638 200.42C208.693 186.441 186.803 162.755 175.067 133.797C168.604 117.486 165.61 100.008 166.276 82.4757C166.942 64.9435 171.253 47.7425 178.935 31.9689C180.833 28.0281 182.969 24.2058 185.329 20.5231C187.223 17.4445 190.697 14.0503 191.091 10.1824C192.354 -1.81601 173.015 0.394218 166.147 0.394218C143.306 0.392252 120.712 5.11064 99.7802 14.2534C78.8489 23.3961 60.0329 36.7659 44.5126 53.5239C28.9924 70.2819 17.1028 90.0665 9.58987 111.636C2.07693 133.206 -0.897247 156.096 0.853882 178.87C4.40933 220.38 23.3206 259.071 53.8896 287.377C84.4586 315.684 124.487 331.569 166.147 331.928Z" fill="#01B3FF"/>
<path d="M302.313 229.311C293.713 247.452 281.593 263.704 266.657 277.12C251.721 290.536 234.267 300.849 215.309 307.459C196.352 314.07 176.27 316.846 156.23 315.626C136.19 314.406 116.593 309.215 98.5775 300.354C67.9961 285.123 43.5313 259.907 29.2312 228.88C14.9311 197.852 11.6529 162.872 19.939 129.728C28.2251 96.5833 47.5788 67.2612 74.7978 46.6134C102.017 25.9655 135.469 15.2294 169.621 16.1815C159.917 33.4101 153.878 52.4582 151.883 72.1308C149.888 91.8034 151.98 111.676 158.028 130.502C164.076 149.328 173.95 166.7 187.029 181.53C200.108 196.36 216.111 208.327 234.033 216.681C255.385 226.514 278.856 230.856 302.313 229.311ZM221.403 79.3309C232.296 79.3309 229.297 62.4384 229.297 55.6499C229.297 48.8613 232.296 31.9689 221.403 31.9689C210.51 31.9689 213.509 48.1509 213.509 54.8605C213.509 61.5701 210.352 79.3309 221.403 79.3309Z" fill="#01B3FF"/>
<path d="M205.616 63.5436H230.402C233.706 63.9392 237.055 63.698 240.269 62.8331C241.896 62.0934 243.223 60.8237 244.034 59.2316C244.846 57.6395 245.093 55.8192 244.735 54.0684C244.378 52.3176 243.437 50.74 242.066 49.5934C240.696 48.4468 238.977 47.7991 237.19 47.7562C229.173 47.2432 221.132 47.2432 213.115 47.7562C209.922 47.283 206.677 47.283 203.484 47.7562C201.391 48.0389 199.495 49.1416 198.215 50.8218C196.934 52.502 196.374 54.622 196.656 56.7155C196.939 58.8091 198.042 60.7046 199.722 61.9851C201.402 63.2656 203.522 63.8262 205.616 63.5436ZM260.871 150.374H285.658C288.962 150.77 292.311 150.528 295.525 149.664C297.151 148.924 298.479 147.654 299.29 146.062C300.101 144.47 300.348 142.65 299.991 140.899C299.633 139.148 298.693 137.57 297.322 136.424C295.951 135.277 294.232 134.629 292.446 134.587C284.429 134.074 276.387 134.074 268.37 134.587C265.178 134.113 261.933 134.113 258.74 134.587C256.647 134.869 254.751 135.972 253.471 137.652C252.19 139.332 251.629 141.452 251.912 143.546C252.195 145.639 253.297 147.535 254.978 148.815C256.658 150.096 258.778 150.657 260.871 150.374Z" fill="#01B3FF"/>
<path d="M276.659 166.161C287.552 166.161 284.552 149.269 284.552 142.48C284.552 135.692 287.552 118.799 276.659 118.799C265.765 118.799 268.765 134.981 268.765 141.691C268.765 148.401 265.608 166.161 276.659 166.161Z" fill="#01B3FF"/>
</svg>
