<svg width="269" height="383" viewBox="0 0 269 383" fill="none" xmlns="http://www.w3.org/2000/svg">
<path d="M198.95 88.9891C215.333 72.6066 215.333 46.0455 198.95 29.663C182.568 13.2806 156.007 13.2806 139.624 29.663C123.242 46.0455 123.242 72.6066 139.624 88.9891C156.007 105.372 182.568 105.372 198.95 88.9891Z" fill="#FE8C34"/>
<path d="M30.7031 372.181L61.5426 365.593C75.2744 362.64 88.0995 356.442 98.9446 347.517C109.79 338.591 118.339 327.198 123.879 314.291L131.26 296.968L153.336 304.503C160.832 307.03 167.605 311.335 173.076 317.048C178.548 322.762 182.555 329.715 184.755 337.314L193.016 365.38C194.451 370.396 197.482 374.808 201.651 377.947C205.819 381.085 210.897 382.779 216.115 382.771C217.054 382.771 218.01 382.702 219.034 382.549C222.463 382.147 225.766 381.013 228.718 379.222C231.671 377.432 234.203 375.027 236.144 372.172C238.085 369.316 239.389 366.076 239.968 362.672C240.546 359.268 240.385 355.78 239.497 352.443L230.511 318.31C224.713 296.449 211.837 277.124 193.895 263.355L167.51 243.182L177.596 187.417C189.027 194.517 202.202 198.309 215.658 198.374C229.114 198.439 242.325 194.773 253.824 187.784L258.5 185.011C263.035 182.259 266.295 177.823 267.568 172.674C268.841 167.525 268.023 162.081 265.293 157.533C262.682 153.235 258.555 150.071 253.727 148.664C248.899 147.256 243.718 147.708 239.207 149.93C233.281 152.84 226.54 153.643 220.097 152.208C213.653 150.773 207.891 147.186 203.759 142.037L199.595 136.772C190.341 125.1 176.988 117.392 162.253 115.216L130.603 110.532C119.613 108.897 108.386 110.418 98.2274 114.918L93.1074 117.111C55.2535 133.853 31.4967 172.799 34.0567 214.092C34.3554 219.357 36.9068 224.247 41.0028 227.618C45.0988 230.903 50.3554 232.439 55.6205 231.714C60.0275 231.071 64.0705 228.906 67.0477 225.593C70.0249 222.281 71.7484 218.031 71.9191 213.58C72.2631 204.586 74.7665 195.807 79.2177 187.985C83.6689 180.162 89.9374 173.525 97.4935 168.635L69.4359 302.822L16.1538 323.72C11.3849 325.551 7.28589 328.79 4.40075 333.006C1.51561 337.221 -0.0191578 342.215 0.000180524 347.323C0.000180524 355.003 3.43912 362.239 9.42952 367.061C15.4285 371.882 23.1682 373.785 30.7031 372.181Z" fill="#FE8C34"/>
</svg>
